HIERARCHY
ROOT hip
{
  OFFSET 0 0 0
  CHANNELS 6 Xposition Yposition Zposition Zrotation Yrotation Xrotation
  JOINT abdomen
  {
    OFFSET 0 20.6881 -0.73152
    CHANNELS 3 Zrotation Xrotation Yrotation
    JOINT chest
    {
      OFFSET 0 11.7043 -0.48768
      CHANNELS 3 Zrotation Xrotation Yrotation
      JOINT neck
      {
        OFFSET 0 22.1894 -2.19456
        CHANNELS 3 Zrotation Xrotation Yrotation
        JOINT head
        {
          OFFSET -0.24384 7.07133 1.2192
          CHANNELS 3 Zrotation Xrotation Yrotation
          JOINT leftEye
          {
            OFFSET 4.14528 8.04674 8.04672
            CHANNELS 3 Zrotation Xrotation Yrotation
            End Site
            {
              OFFSET 1 0 0
            }
          }
          JOINT rightEye
          {
            OFFSET -3.6576 8.04674 8.04672
            CHANNELS 3 Zrotation Xrotation Yrotation
            End Site
            {
              OFFSET 1 0 0
            }
          }
        }
      }
      JOINT rCollar
      {
        OFFSET -2.68224 19.2634 -4.8768
        CHANNELS 3 Zrotation Xrotation Yrotation
        JOINT rShldr
        {
          OFFSET -8.77824 -1.95073 1.46304
          CHANNELS 3 Zrotation Xrotation Yrotation
          JOINT rForeArm
          {
            OFFSET -28.1742 -1.7115 0.48768
            CHANNELS 3 Zrotation Xrotation Yrotation
            JOINT rHand
            {
              OFFSET -22.5879 0.773209 7.07136
              CHANNELS 3 Zrotation Xrotation Yrotation
              JOINT rThumb1
              {
                OFFSET -1.2192 -0.487915 3.41376
                CHANNELS 3 Zrotation Xrotation Yrotation
                JOINT rThumb2
                {
                  OFFSET -3.37035 -0.52449 3.41376
                  CHANNELS 3 Zrotation Xrotation Yrotation
                  End Site
                  {
                    OFFSET -1.78271 -1.18214 1.43049
                  }
                }
              }
              JOINT rIndex1
              {
                OFFSET -7.75947 0.938293 5.60832
                CHANNELS 3 Zrotation Xrotation Yrotation
                JOINT rIndex2
                {
                  OFFSET -2.54057 -0.884171 1.56538
                  CHANNELS 3 Zrotation Xrotation Yrotation
                  End Site
                  {
                    OFFSET -1.62519 -0.234802 1.16502
                  }
                }
              }
              JOINT rMid1
              {
                OFFSET -8.24714 1.18213 3.41376
                CHANNELS 3 Zrotation Xrotation Yrotation
                JOINT rMid2
                {
                  OFFSET -3.10165 -0.590103 1.0647
                  CHANNELS 3 Zrotation Xrotation Yrotation
                  End Site
                  {
                    OFFSET -2.48547 -0.328903 0.83742
                  }
                }
              }
              JOINT rRing1
              {
                OFFSET -8.82822 0.546677 1.51678
                CHANNELS 3 Zrotation Xrotation Yrotation
                JOINT rRing2
                {
                  OFFSET -2.60934 -0.819778 -0.0198488
                  CHANNELS 3 Zrotation Xrotation Yrotation
                  End Site
                  {
                    OFFSET -2.33842 -0.294052 0.168128
                  }
                }
              }
              JOINT rPinky1
              {
                OFFSET -8.27202 -0.0477905 -0.4584
                CHANNELS 3 Zrotation Xrotation Yrotation
                JOINT rPinky2
                {
                  OFFSET -1.82734 -0.647385 -0.700984
                  CHANNELS 3 Zrotation Xrotation Yrotation
                  End Site
                  {
                    OFFSET -1.69225 -0.51767 -0.607171
                  }
                }
              }
            }
          }
        }
      }
      JOINT lCollar
      {
        OFFSET 2.68224 19.2634 -4.8768
        CHANNELS 3 Zrotation Xrotation Yrotation
        JOINT lShldr
        {
          OFFSET 8.77824 -1.95073 1.46304
          CHANNELS 3 Zrotation Xrotation Yrotation
          JOINT lForeArm
          {
            OFFSET 28.1742 -1.7115 0.48768
            CHANNELS 3 Zrotation Xrotation Yrotation
            JOINT lHand
            {
              OFFSET 22.5879 0.773209 7.07136
              CHANNELS 3 Zrotation Xrotation Yrotation
              JOINT lThumb1
              {
                OFFSET 1.2192 -0.487915 3.41376
                CHANNELS 3 Zrotation Xrotation Yrotation
                JOINT lThumb2
                {
                  OFFSET 3.37035 -0.52449 3.41376
                  CHANNELS 3 Zrotation Xrotation Yrotation
                  End Site
                  {
                    OFFSET 1.78271 -1.18214 1.43049
                  }
                }
              }
              JOINT lIndex1
              {
                OFFSET 7.75947 0.938293 5.60832
                CHANNELS 3 Zrotation Xrotation Yrotation
                JOINT lIndex2
                {
                  OFFSET 2.54057 -0.884171 1.56538
                  CHANNELS 3 Zrotation Xrotation Yrotation
                  End Site
                  {
                    OFFSET 1.62519 -0.234802 1.16502
                  }
                }
              }
              JOINT lMid1
              {
                OFFSET 8.24714 1.18213 3.41376
                CHANNELS 3 Zrotation Xrotation Yrotation
                JOINT lMid2
                {
                  OFFSET 3.10165 -0.590103 1.0647
                  CHANNELS 3 Zrotation Xrotation Yrotation
                  End Site
                  {
                    OFFSET 2.48547 -0.328903 0.83742
                  }
                }
              }
              JOINT lRing1
              {
                OFFSET 8.82822 0.546677 1.51678
                CHANNELS 3 Zrotation Xrotation Yrotation
                JOINT lRing2
                {
                  OFFSET 2.60934 -0.819778 -0.0198488
                  CHANNELS 3 Zrotation Xrotation Yrotation
                  End Site
                  {
                    OFFSET 2.33842 -0.294052 0.168128
                  }
                }
              }
              JOINT lPinky1
              {
                OFFSET 8.27202 -0.0477905 -0.4584
                CHANNELS 3 Zrotation Xrotation Yrotation
                JOINT lPinky2
                {
                  OFFSET 1.82734 -0.647385 -0.700984
                  CHANNELS 3 Zrotation Xrotation Yrotation
                  End Site
                  {
                    OFFSET 1.69225 -0.51767 -0.607171
                  }
                }
              }
            }
          }
        }
      }
    }
  }
  JOINT rButtock
  {
    OFFSET -8.77824 4.35084 1.2192
    CHANNELS 3 Zrotation Xrotation Yrotation
    JOINT rThigh
    {
      OFFSET 0 -1.70687 -2.19456
      CHANNELS 3 Zrotation Xrotation Yrotation
      JOINT rShin
      {
        OFFSET 0 -36.8199 0.73152
        CHANNELS 3 Zrotation Xrotation Yrotation
        JOINT rFoot
        {
          OFFSET 0.73152 -45.1104 -5.12064
          CHANNELS 3 Zrotation Xrotation Yrotation
          End Site
          {
            OFFSET -1.1221 -3.69964 12.103
          }
        }
      }
    }
  }
  JOINT lButtock
  {
    OFFSET 8.77824 4.35084 1.2192
    CHANNELS 3 Zrotation Xrotation Yrotation
    JOINT lThigh
    {
      OFFSET 0 -1.70687 -2.19456
      CHANNELS 3 Zrotation Xrotation Yrotation
      JOINT lShin
      {
        OFFSET 0 -36.8199 0.73152
        CHANNELS 3 Zrotation Xrotation Yrotation
        JOINT lFoot
        {
          OFFSET -0.73152 -45.1104 -5.12064
          CHANNELS 3 Zrotation Xrotation Yrotation
          End Site
          {
            OFFSET 1.1221 -3.69964 12.103
          }
        }
      }
    }
  }
}
MOTION
Frames:	6
Frame Time:	0.00833333
17.668 83.6463 8.30849 -0.0 -0.0 -0.0 -0.0 0.0 -0.0 0.0 0.0 -0.0 -8.127505 9.324006 -75.254595 11.06814 5.502965 75.384894 0.0 -0.0 -0.0 0.0 -0.0 -0.0 -80.1661 68.371792 83.260848 -72.252036 86.566389 91.765132 -74.821353 -76.160916 -100.621768 88.637546 -70.754292 73.187864 11.110121 -11.092107 -0.639674 -125.656461 -10.477659 113.297776 0.184726 -0.300416 -0.104009 -109.779211 43.891538 77.052369 -0.571049 1.648356 0.322148 -27.040512 48.165397 19.435659 -145.119466 0.267753 -179.212454 -145.25192 1.806163 -179.396775 -25.537984 -38.087442 -24.598474 2.363196 2.132734 2.121543 143.620413 38.233348 -148.080496 -93.700912 -84.665221 -68.042651 -33.860757 -75.103026 -29.025239 11.096129 32.501514 -2.093947 -93.028426 -51.083891 -40.500925 143.717229 11.392237 -105.745239 155.193415 -24.299992 -122.142835 145.500113 -6.055915 -119.202778 -0.541241 -1.589941 0.294737 -56.77614 -75.207402 -32.789792 0.021306 -1.72602 0.542654 -0.123638 0.238337 -0.353014 9.259135 -19.386593 8.754106 147.545236 6.33054 143.195859 -180.0 75.749642 -0.0 -180.0 75.749642 -0.0 -5.266417 4.296242 -62.140379 151.021857 -10.126064 -55.655697 -180.0 75.749642 -0.0 -180.0 75.749642 -0.0 5.653941 6.599419 82.580946 -145.989116 21.267036 65.656365
16.2665 83.8412 7.183500000000001 -0.0 0.0 -0.0 0.0 -0.0 0.0 -0.0 -0.0 0.0 -7.906765 12.08614 -91.106352 11.93363 8.136982 91.092829 0.0 -0.0 -0.0 0.0 -0.0 -0.0 -80.1661 68.371792 83.260848 16.633093 26.658323 0.703998 5.023579 47.475519 -35.097403 170.805478 -16.101147 143.93031 178.619005 -18.760041 89.038626 -161.432308 0.906736 89.232035 -4.706866 7.223928 2.854949 -178.80018 -21.215121 110.609549 -82.840589 61.110826 74.532293 -10.461514 36.096183 6.601623 -145.121957 1.974539 -179.748654 2.410526 -61.185085 -28.834708 -1.149411 -2.914417 -1.065731 -83.074356 -54.62194 -80.25538 80.1661 68.371792 -83.260848 70.372238 86.569955 -89.881867 116.02876 -73.556021 140.135077 -58.163726 -68.032297 -44.215164 -65.424922 -46.602932 -21.57825 158.219999 -52.034175 -138.109433 -37.215945 -57.917763 0.643014 66.78533 42.729033 -53.169261 -0.541241 -1.589941 0.294737 175.197829 -30.846193 -143.995804 0.014868 -1.323148 0.415899 165.623096 -0.933136 -171.644028 126.797849 -26.619602 124.512652 -45.041252 83.210678 5.294983 -180.0 75.749642 -0.0 -180.0 75.749642 -0.0 -4.911375 3.484732 -54.436469 -1.901463 -7.362889 57.802319 -180.0 75.749642 -0.0 -180.0 75.749642 -0.0 5.604238 5.709179 74.804423 9.221902 -57.207183 -87.663303
14.8787 83.9363 6.00914 0.0 -0.0 -0.0 -0.0 -0.0 -0.0 -0.0 -0.0 -0.0 -8.144362 10.101976 -79.678508 11.382902 6.215336 79.779518 -0.0 -0.0 0.0 -0.0 -0.0 0.0 -155.460052 -3.227798 161.777534 -39.90037 66.866239 62.31338 -158.986811 82.654162 162.050531 -2.336309 7.476954 -0.103557 -89.136032 38.427358 50.299234 20.290113 -26.941174 22.348337 88.792192 -75.499035 40.049684 -145.732114 -1.924244 105.911728 -0.571049 1.648356 0.322148 -166.783806 -5.665829 143.511721 0.000171 0.022623 0.007107 -3.429665 29.564976 4.718141 0.465225 1.226425 0.428913 -77.792631 -54.830172 -74.963593 143.620413 38.233348 -148.080496 -93.700912 -84.665221 -68.042651 -157.081081 -42.982686 -148.623255 91.37751 74.49663 -72.060048 10.203552 9.662104 -2.404915 -0.790232 0.490134 -5.765721 -60.461659 -70.523647 -15.71111 64.628045 43.83322 -54.350261 82.840589 61.110826 -74.532293 1.094477 14.671615 0.41697 0.021291 -1.725169 0.542387 -1.512165 -26.591578 2.754641 134.695017 -14.105438 132.114119 -40.145201 79.801992 1.326609 -180.0 75.749642 -0.0 180.0 75.749642 0.0 6.817693 3.579341 71.6195 -150.62838 -3.887916 85.067192 -180.0 75.749642 -0.0 180.0 75.749642 0.0 2.721753 1.041334 25.607042 -104.185082 -1.473056 16.435331
13.5123 83.9464 4.82971 -0.0 0.0 -0.0 0.0 -0.0 0.0 -0.0 -0.0 0.0 -6.906697 5.093511 -50.165498 8.325947 2.056425 50.323376 0.0 -0.0 -0.0 0.0 -0.0 -0.0 -80.1661 68.371792 83.260848 16.636043 26.569078 0.697254 10.098776 56.240838 -39.408347 173.748405 -7.344798 144.831889 -78.493201 38.702306 42.741368 -87.13326 -3.611802 66.514633 -28.901256 31.616227 21.337761 58.758959 -64.266488 20.400634 -0.057679 0.167876 0.032027 0.071441 -0.209114 -0.037264 0.004673 0.918035 0.288384 -164.572539 -64.111943 -178.309152 -145.397571 12.779135 -142.020996 -154.085428 39.956945 -146.316596 80.1661 68.371792 -83.260848 -16.636043 26.569078 -0.697254 -170.062669 -7.959591 -172.895207 25.498965 55.790154 -11.520513 166.631339 -4.304864 -89.77151 -178.335987 -18.104212 -91.987427 -174.382035 -63.05997 -113.272685 172.238667 -40.939475 -104.712104 169.08961 -33.247392 -145.374931 177.74829 -46.647751 -139.424637 74.840941 72.961123 -92.827929 32.026396 -65.058494 49.7185 86.171571 -50.468117 84.540001 151.509202 33.92311 149.600314 -180.0 75.749642 -0.0 -180.0 75.749642 -0.0 -4.911375 3.484732 -54.436469 120.900965 19.166799 -32.872537 -180.0 75.749642 -0.0 -180.0 75.749642 -0.0 5.604238 5.709179 74.804423 41.972451 -87.308649 -64.878489
12.1423 83.9114 3.63628 -0.0 0.0 -0.0 -0.0 -4.771896 -180.0 -0.0 -4.771896 -180.0 -7.839959 7.474454 -64.637578 10.095103 3.902534 64.805654 0.0 -0.0 -0.0 0.0 -0.0 -0.0 -80.1661 68.371792 83.260848 -72.229525 86.566453 91.742579 11.409152 4.636567 -33.213403 177.404181 4.243954 145.329733 178.619005 -18.760041 89.038626 -37.14 -24.74497 -0.394296 5.921393 -10.174578 -2.968574 16.319254 -19.577743 1.593698 -151.476684 17.84174 137.538824 12.291266 -20.005288 -2.682298 -69.297282 72.946551 87.017042 9.932038 26.383546 -12.424674 -152.200278 37.330087 -147.582714 -160.779362 53.210887 -145.223367 80.1661 68.371792 -83.260848 70.364354 86.569962 -89.873968 -64.722571 69.276532 75.344182 132.476396 70.015073 -110.958491 78.030619 38.689342 -42.41267 -22.22742 -25.459943 -20.033234 162.636721 -37.465429 -122.64953 154.263654 -23.90571 -116.422142 175.932641 -50.680399 -144.035247 6.636623 25.962295 -8.889381 145.118942 0.185466 179.186604 144.609521 -5.240231 178.50472 -16.516138 57.859103 -12.547749 -4.925692 12.513016 -0.614197 -0.0 0.0 -0.0 -0.0 -0.0 -0.0 6.649139 3.263768 68.510317 3.486063 -61.932348 -86.704478 -0.0 0.0 -0.0 -0.0 -0.0 -0.0 -6.882802 3.713377 -72.914422 150.789687 -3.80725 -86.372582
10.7444 83.8166 2.38203 -0.0 0.0 -0.0 -0.0 0.0 -0.0 0.0 0.0 -0.0 10.313685 4.208854 66.928732 -7.925228 7.840827 -66.764752 0.0 -0.0 -0.0 0.0 -0.0 -0.0 -155.504155 -3.514523 161.838528 32.504698 -40.551456 18.735735 39.850435 67.411891 -63.559826 -174.782664 27.59792 143.951302 2.016417 -2.000371 -0.275365 -91.579165 20.454903 83.442589 -132.81837 12.807409 111.109258 32.119472 -40.427333 -14.561625 -8.41658 20.880424 5.645309 7.312283 -22.946258 -2.817679 -77.742735 72.902851 95.870145 -160.019399 2.555889 -173.547395 1.134951 3.04054 1.043633 -139.456616 -15.556493 -134.588821 80.1661 68.371792 -83.260848 -16.926686 14.149077 0.16198 64.748083 -83.097366 70.855479 -4.514972 -13.917859 -1.031514 -175.880133 -21.257501 -88.493291 4.228867 -58.299081 1.054338 138.493513 4.896353 -114.8648 134.619579 27.88631 -116.178498 36.036059 51.723116 -29.832321 167.446161 -15.392401 -146.812852 -0.004873 1.771387 -0.556475 166.793931 -39.409928 -176.908458 118.627184 -35.449999 116.545508 144.707802 10.412341 143.95702 0.0 0.0 -0.0 -0.0 -0.0 -0.0 -4.919407 3.500227 -54.588129 -157.578847 -61.120633 -33.940297 0.0 0.0 -0.0 -0.0 -0.0 -0.0 -2.948002 0.251893 -26.025665 41.538602 16.850504 6.501844
